<svg version="1" xmlns="http://www.w3.org/2000/svg" width="829.333" height="829.333" viewBox="0 0 622.000000 622.000000"><path d="M297.9.4c-.2.2-2.4.7-4.9.9-13.6 1.6-29.5 7.5-46 17-4.7 2.8-11 6.3-14 8-3 1.6-6.2 3.6-7.1 4.3-.8.8-1.8 1.4-2.1 1.4-.4 0-9.9 5.4-21.3 12-11.3 6.6-20.9 12-21.2 12-.4 0-1.4.6-2.2 1.4-.9.8-3.8 2.6-6.6 4-2.7 1.5-5.7 3.1-6.5 3.6-7.5 4.6-20.4 12-21 12-.5 0-1 .3-1.2.7-.1.5-2.1 1.7-4.3 2.9-2.2 1.2-8.3 4.6-13.5 7.6-5.2 3-17.1 9.9-26.5 15.3-9.3 5.4-18.3 10.6-20 11.4-1.6.9-3.2 1.8-3.5 2.1-.7.7-4.3 2.9-6 3.7-.8.4-4.2 2.3-7.5 4.2-3.3 2-7.2 4.3-8.8 5l-2.7 1.5.3 143c.2 78.7.7 144.9 1.1 147.1 1.6 8.3 4.8 20 5.8 21.2.6.7.7 1.3.3 1.3-.4 0-.2.7.5 1.5s1 1.5.6 1.5c-.7 0 9.8 20.4 11.4 22 .3.3 1.6 2.1 3 4 6.2 8.8 23.3 26 25.9 26 .5 0 1.1.4 1.3.8.2.5 5 3.7 10.8 7.1 5.8 3.4 11.2 6.6 12 7.1 1.9 1.2 17.2 10 20.8 12 1.5.8 4.5 2.6 6.7 4 2.2 1.3 5.1 3 6.5 3.7 1.4.7 3.2 1.7 4 2.3 1.6 1.1 12.6 7.4 23.5 13.5 2.2 1.3 10.7 6.2 18.8 10.9 8.2 4.7 15.2 8.6 15.8 8.6.5 0 .9.4.9.8s2.5 2 5.5 3.6c3 1.5 5.7 3.2 6 3.7.4.5 1.5.9 2.6.9 1 0 1.9.4 1.9.8 0 .5 1 1.4 2.3 2 1.2.6 4.5 2.4 7.2 4 28.6 16.4 34 19.7 34.3 20.4.2.4 1.2.8 2.2.8 1 0 2.1.4 2.4.9.7 1.1 11.4 7.2 12 6.9.2-.2 1.2.4 2.2 1.3 1.1.9 4.1 2.8 6.7 4.3l4.9 2.7 3.1-2c1.8-1 5-2.9 7.2-4.1 2.2-1.3 5.4-3.1 7-4.1 1.7-1 4.4-2.5 6-3.4 1.7-.8 4.4-2.4 6-3.4 1.7-1.1 4.6-2.8 6.5-3.9 8.1-4.5 11.6-6.5 12.5-7.2.6-.4 4.2-2.5 8-4.5 3.9-2.1 7.2-4.1 7.5-4.4.3-.3 1.9-1.3 3.5-2.1 1.7-.8 3.5-1.9 4-2.3.6-.4 2.8-1.8 5-3 3.8-2 22.7-12.9 29.6-17 1.7-.9 11.9-6.8 22.7-13.1 10.8-6.2 29.6-17.1 41.7-24.1 12.1-7 24-13.9 26.5-15.3 20.7-11.6 37.7-28.6 48.5-48.6 3.2-6 8.1-17.9 9.4-22.8.1-.4.7-2.2 1.2-4 1-3.5 1.3-4.8 2.8-14.8.7-4.3 1.1-54.5 1.1-146.5v-140l-12.2-7c-6.6-3.9-14.4-8.3-17.2-9.8-2.8-1.6-6.1-3.5-7.3-4.3-5.8-3.7-26.6-15.4-27.4-15.4-.5 0-.9-.5-.9-1 0-.6-.4-1-.8-1-.5 0-7.4-3.8-15.3-8.5-7.9-4.6-16.1-9.2-18.1-10.1-2.1-.9-3.8-2-3.8-2.5s-.4-.9-1-.9c-.5 0-7-3.6-14.6-8-7.5-4.4-14-8-14.5-8s-.9-.4-.9-.8-1.2-1.3-2.7-1.9c-3.1-1.3-7.8-4-16.9-9.6-3.4-2-6.7-3.7-7.3-3.7-.6 0-1.1-.5-1.1-1 0-.6-.5-1-1-1-.6 0-4-1.8-7.6-4-3.6-2.2-7-4-7.4-4-.5 0-1-.3-1.2-.8-.1-.4-1.9-1.5-3.8-2.6-6.2-3.3-10.4-5.7-14.5-8.2-9.8-6-27.9-13.2-37.5-14.9-1.9-.3-4.6-.8-6-1.1-3.2-.7-31.5-1.6-32.1-1zm37.8 151.5c.7 0-2.6 6.7-7.2 14.8-4.7 8-8.5 14.8-8.5 15.1 0 .2-.8 1.6-1.9 3-1.9 2.8-7.7 13.1-9.5 16.9-.6 1.3-1.4 2.3-1.8 2.3-.5 0-.8.4-.8.9s-2.3 4.9-5.1 9.8c-2.8 4.8-6.2 10.6-7.4 12.8l-2.3 4-19.9.1h-19.8l-.5 120-.5 119.9-39.5.1-39.5.1-.5-120.1-.5-120.1h-39.7l-39.8.1v-39.7c0-21.7.2-39.8.4-40 .4-.3 240.7-.4 244.3 0zm195.1 39.7l.2 40-60-.1h-60l.2 20 .3 20h54.3c51 0 54.2.1 54.2 1.7 0 1-.4 1.8-.8 1.8s-1.3 1.2-1.9 2.7c-1.2 2.8-3.2 6.4-9.9 17.4-1.9 3.1-3.4 6.2-3.4 6.8 0 .6-.3 1.1-.7 1.1-.5 0-1.3 1-1.9 2.3-1.4 2.9-5.9 10.8-10.3 18.2-2 3.3-4.7 8.1-6.1 10.7-1.4 2.7-2.8 4.8-3.2 4.8-.5 0-.8.5-.8 1.1 0 .6-1.4 3.4-3.1 6.3l-3.2 5.3-30.1-.1c-16.5-.1-30.9 0-31.8.2-1.7.4-1.8 4.3-2 60.1l-.3 59.6-39.7.1-39.8.1V231.9l3.6-6.7c2-3.7 4.3-7.4 5-8.3.8-.8 1.4-1.8 1.4-2.2 0-.3 1.4-3 3.1-5.9 3.3-5.5 5.5-9.3 9.4-16.3 6.2-10.9 21.6-37.2 22.8-39 1.4-2 2.5-2 77.8-2h76.4l.3 40.1z"/></svg>