<?xml version="1.0" encoding="utf-8"?>
<!-- Generator: Adobe Illustrator 21.0.2, SVG Export Plug-In . SVG Version: 6.00 Build 0)  -->
<svg version="1.1" id="Capa_1" xmlns="http://www.w3.org/2000/svg" xmlns:xlink="http://www.w3.org/1999/xlink" x="0px" y="0px"
	 viewBox="0 0 145.8 60" style="enable-background:new 0 0 145.8 60;" xml:space="preserve">
<style type="text/css">
	.st0{fill:#383838;}
	.st1{fill:#CC9F53;}
</style>
<g id="logo_2_">
	<polygon class="st0" points="76.2,12.6 76.2,24.3 83.6,24.3 83.6,21.5 79.1,21.5 79.1,19.8 82.2,19.8 82.2,17.1 79.1,17.1 
		79.1,15.4 83.6,15.4 83.6,12.6 	"/>
	<polygon class="st0" points="66.7,15.4 69.3,15.4 69.3,24.3 72.2,24.3 72.2,15.4 74.9,15.4 74.9,12.6 66.7,12.6 	"/>
	<polygon class="st0" points="87.9,12.6 85,12.6 85,24.3 90.8,24.3 90.8,21.5 87.9,21.5 	"/>
	<polygon class="st0" points="92.1,12.6 92.1,24.3 99.5,24.3 99.5,21.5 95,21.5 95,19.8 98.1,19.8 98.1,17.1 95,17.1 95,15.4 
		99.5,15.4 99.5,12.6 	"/>
	<path class="st1" d="M103.8,15.4v1.7h4.2l-1.5,2.7h-2.7v4.5h-2.9V12.6h7.4v2.8C108.3,15.4,103.8,15.4,103.8,15.4z"/>
	<path class="st1" d="M108.7,18.4c0-3.4,2.8-6.2,6.2-6.2c3.4,0,6.2,2.8,6.2,6.2s-2.8,6.2-6.2,6.2l0,0c-3.4,0-6.1-2.7-6.1-6
		C108.7,18.5,108.7,18.5,108.7,18.4z M118.1,18.5c0-1.8-1.5-3.3-3.3-3.3s-3.3,1.5-3.3,3.3s1.4,3.3,3.2,3.3c1.8,0,3.3-1.4,3.3-3.2
		C118.1,18.6,118.1,18.5,118.1,18.5L118.1,18.5z"/>
	<path class="st1" d="M122.1,18.4c0-3.4,2.8-6.2,6.2-6.2c3.4,0,6.2,2.8,6.2,6.2s-2.8,6.2-6.2,6.2l0,0c-3.4,0-6.1-2.7-6.1-6
		C122.1,18.5,122.1,18.5,122.1,18.4z M131.5,18.5c0-1.8-1.5-3.3-3.3-3.3s-3.3,1.5-3.3,3.3s1.4,3.3,3.2,3.3c1.8,0,3.3-1.4,3.3-3.2
		C131.5,18.6,131.5,18.5,131.5,18.5L131.5,18.5z"/>
	<path class="st1" d="M142.9,15.4h-2.6v9h-2.9v-9h-2.6v-2.8h8.2L142.9,15.4L142.9,15.4z"/>
	<polygon class="st0" points="91.7,42 91.7,53.8 94.6,53.8 94.6,49.3 97.7,49.3 97.7,46.5 94.6,46.5 94.6,44.8 99.1,44.8 99.1,42 	
		"/>
	<path class="st0" d="M99.5,47.9c0-3.4,2.8-6.2,6.2-6.2c3.4,0,6.2,2.8,6.2,6.2s-2.8,6.2-6.2,6.2l0,0c-3.4,0-6.1-2.7-6.1-6
		C99.5,48,99.5,47.9,99.5,47.9z M108.9,47.9c0-1.8-1.5-3.3-3.3-3.3s-3.3,1.5-3.3,3.3s1.4,3.3,3.2,3.3c1.8,0,3.3-1.4,3.3-3.2
		C108.9,48,108.9,48,108.9,47.9L108.9,47.9z"/>
	<path class="st0" d="M112.9,47.9c0-3.4,2.8-6.2,6.2-6.2c3.4,0,6.2,2.8,6.2,6.2s-2.8,6.2-6.2,6.2l0,0c-3.4,0-6.1-2.7-6.1-6
		C112.9,48,112.9,47.9,112.9,47.9z M122.3,47.9c0-1.8-1.5-3.3-3.3-3.3s-3.3,1.5-3.3,3.3s1.4,3.3,3.2,3.3c1.8,0,3.3-1.4,3.3-3.2
		C122.3,48,122.3,48,122.3,47.9L122.3,47.9z"/>
	<path class="st0" d="M133.7,44.8h-2.6v9h-2.9v-9h-2.6V42h8.2v2.8H133.7z"/>
	<path class="st1" d="M67.5,53.8V42h4c1.9,0,3.2,0.3,4.4,1.4c1.1,1.1,1.7,2.6,1.7,4.5c0,1.8-0.6,3.3-1.7,4.4c-1.3,1.2-2.4,1.5-4,1.5
		C71.9,53.8,67.5,53.8,67.5,53.8z M74.8,47.9c0-2.1-1.1-3.3-3.3-3.3h-1.1v6.7h1.2C73.8,51.2,74.8,50.2,74.8,47.9z"/>
	<path class="st1" d="M81.6,42v7.3c0,1.3,0.4,2,1.4,2s1.5-0.7,1.5-2V42h2.9v7.4c0,2.9-1.8,4.6-4.4,4.6c-2.7,0-4.3-1.6-4.3-4.6V42
		H81.6z"/>
	<path class="st1" d="M76.4,39.1h-3.2l4.5-11.8h2.4l4.5,11.8h-3.2l-0.6-1.7H77L76.4,39.1z M79,31.2L77.8,35h2.3L79,31.2z"/>
	<path class="st1" d="M67.5,39.1V27.3h2.9v9.2h2.9v2.6H67.5z"/>
	<path class="st1" d="M92.8,39.3c-1.7,0-3.3-0.6-4.4-1.9c-1.1-1.2-1.7-2.6-1.7-4.4c0-1.6,0.6-3.1,1.8-4.3c1.1-1.1,2.7-1.8,4.3-1.7
		c2.8,0,5.1,1.8,5.9,4.7h-3.1C95,30.6,94,30,92.9,30c-1.7,0-3.1,1.3-3.1,3l0,0c0,1.9,1.5,3.3,3.1,3.3c1.1,0,2.1-0.6,2.7-1.7h3.1
		C97.9,37.6,95.7,39.3,92.8,39.3z"/>
	<path class="st1" d="M105.6,34.6h-2.9v4.5h-2.9V27.3h2.9v4.5h2.9v-4.5h2.9v11.8h-2.9V34.6z"/>
	<path class="st1" d="M111.5,39.1h-3.2l4.5-11.8h2.4l4.5,11.8h-3.2l-0.6-1.7H112L111.5,39.1z M114.1,31.2l-1.2,3.8h2.3L114.1,31.2z"
		/>
	<path class="st1" d="M119.6,39.1V27.3h2.9v11.8H119.6z"/>
	<path class="st1" d="M123.9,39.1V27.3h2.6l4.3,6.5v-6.5h2.9v11.8h-2.5l-4.4-6.6v6.6H123.9z"/>
	<path class="st1" d="M135.1,39.1V27.3h7.4v2.6H138v1.9h3.1v2.6H138v2h4.5V39h-7.4V39.1z"/>
	<path class="st1" d="M36.5,3c-3.4-2-7.6-2-11,0L7,13.7v24.9c0,3.9,2.1,7.6,5.5,9.6L31,58.8l18.4-10.6c3.4-2,5.5-5.6,5.5-9.6V13.7
		L36.5,3z M29.1,22.9h-3.7V45H18V22.9h-7.4v-7.4h22.7L29.1,22.9z M51.2,22.9h-11v3.7h10.1L46,33.9h-5.9v11h-7.4v-22l4.3-7.4h14.1
		L51.2,22.9L51.2,22.9z"/>
</g>
</svg>
