<svg xmlns="http://www.w3.org/2000/svg" width="354.44" height="340.16" viewBox="0 0 354.44 340.16"><defs><style>.cls-1{fill:#fff;}</style></defs><title>champions-league-v-w</title><g id="Capa_2" data-name="Capa 2"><g id="WHITE_LOGO" data-name="WHITE LOGO"><path class="cls-1" d="M177.18,91.26h0c-4.86,7.4-9.75,15.31-14.2,23.27a156.69,156.69,0,0,1-4.76-29c-8-2.69-16.23-5.81-24.18-9.39,0,0,9.19-4.65,23.87-10.34a129.93,129.93,0,0,1,4.22-27.88s4.83,8.89,13.61,21.51c9.26-3,19.59-6,30.52-8.41,0,0-8.12,10.08-18.42,24.66a272.79,272.79,0,0,0,20.32,22.86s-13.23-2.31-31-7.22Zm81-4.49a22.93,22.93,0,0,1-10.44,8.38,209.72,209.72,0,0,0-2.45-22.86A276.3,276.3,0,0,1,234,98.72a106.56,106.56,0,0,1-25.8-.24c7,8.39,12.46,13.38,16.85,16.75a158.8,158.8,0,0,1-11.36,17A61.75,61.75,0,0,0,236,122.51a22.3,22.3,0,0,1,6.46,6.56s3.76-5.33,5.06-17.67a54.82,54.82,0,0,0,10.7-24.63ZM254,53.16a58.39,58.39,0,0,0-16.64-21.67c-5.56-11.67-12-17.06-12-17.06a18.05,18.05,0,0,1-.87,8.87A79.49,79.49,0,0,0,198,15.48,112.75,112.75,0,0,1,219.34,34,114.83,114.83,0,0,1,206.27,51a124.54,124.54,0,0,1,24.11-3.32,167.44,167.44,0,0,1,15,24.64,99.5,99.5,0,0,0-2.22-23.77c8.23,1.58,10.85,4.64,10.85,4.64ZM198,15.48a101.63,101.63,0,0,0-19.11-7.35A38.8,38.8,0,0,1,193.6.07a78.18,78.18,0,0,0-31.51,5.11C149,4.12,140.6,6.41,140.6,6.41c2,1.48,3.63,4.12,5.32,7.29A71.61,71.61,0,0,0,129.2,29.21,115.38,115.38,0,0,1,150,21.45c.76,1.4,1.57,2.8,2.45,4.17a79.12,79.12,0,0,0,9.72,12.25,56.28,56.28,0,0,1,8.54-20.61A179,179,0,0,1,198,15.48ZM113.74,42.11A144,144,0,0,1,129.2,29.21a53.62,53.62,0,0,0-11.71,1.53,63.68,63.68,0,0,1,8.39-15s-25.34,18-30.14,50.4c0,0,2.12-5.85,9.35-14.69a50.71,50.71,0,0,0,6.16,10.47,83.82,83.82,0,0,1,2.51-19.83Zm20.3,34a142.3,142.3,0,0,0-21.06,2,145.26,145.26,0,0,1-1.75-16.18,70.86,70.86,0,0,0-8.89,19c-6.12,2.27-7.67,4.47-7.67,4.47a27.8,27.8,0,0,0,5.28,9.41c-.75,14.1,3.81,23.41,3.81,23.41A49.14,49.14,0,0,1,109.41,104a105.59,105.59,0,0,0,14.93,9.93,92.22,92.22,0,0,1-8-20.1A115.57,115.57,0,0,1,134,76.09Zm43.51,72a163.84,163.84,0,0,1-17.93-8.89A185.71,185.71,0,0,1,163,114.53a111.77,111.77,0,0,1-19.27,14.74,181.33,181.33,0,0,1-19.38-15.38,123.57,123.57,0,0,0,9.18,20.36c-5.74,2.14-11.65,3.14-17.05,1.82,0,0,6.38,8,26.07,11.36,5.46,6.46,12.11,11.82,19.87,13.68,0,0-2.33-2.57-2.86-12.19a162.13,162.13,0,0,0,18-.81Zm35.69-.81a43.7,43.7,0,0,0,.42-15A100.56,100.56,0,0,1,199.26,149a112.53,112.53,0,0,1-21.71-.93,52.23,52.23,0,0,0,11.71,8.58c-8.28,5.13-13.83,5.57-13.83,5.57,36.25.77,58-22.89,58-22.89a58,58,0,0,1-20.22,7.94Zm42,137.56h0c9.75,0,18.07-6.91,18.07-18.39,0-9.7-6.69-18.5-17.8-18.5-10,0-17.69,7.5-17.69,17.84,0,10,6.58,19,17.41,19Zm-.59-31.67h0c8.16,0,10.61,9.25,10.61,15.56,0,5.95-3.22,10.89-8.77,10.89-7.78,0-10.62-9.3-10.62-15.67,0-4.35,2-10.77,8.77-10.77ZM188.9,279.69h0V253.82l3.38-.35c4.79,0,7.83,1.74,7.83,6.64,0,4.51-2.22,7.72-7.94,7.72-.72,0-1.42-.16-1.91-.16s-.81,0-.81.49c0,1.15,3.92,2.51,6.59,2.51,7,0,12.13-4.14,12.14-10.89,0-6.31-3.66-11.11-13.73-11.11H178.34v1.51c1.85.06,2.5.77,2.5,2.3v26.62c0,2.56-.38,3.48-2.5,3.87v1.36c2.39-.16,4.52-.33,6.53-.33s4.14.17,7.57.33V283c-3.16-.6-3.54-1.31-3.54-3.27Zm29.79-27.54h0v28.52c0,1.52-.65,2.23-2.5,2.29v1.36c2.39-.16,4.52-.33,6.53-.33s4.14.17,6.54.33V283c-1.85-.06-2.51-.77-2.51-2.29V252.15c0-1.53.66-2.23,2.51-2.29v-1.42c-2.39.17-4.52.33-6.54.33s-4.13-.16-6.53-.33v1.42c1.85.06,2.5.76,2.5,2.29Zm65.55,0h0v28.52c0,1.53-.66,2.24-2.51,2.29v1.36c1.74-.16,3.54-.32,5.34-.32s3.43.17,5.23.32v-1.36c-1.47,0-3.26-.21-3.26-3V256.2h.11l18.07,28.12H313v-32.2c0-1.53.65-2.24,2.5-2.29V248.4c-1.74.17-3.53.33-5.33.33s-3.43-.16-5.23-.33v1.43c1.46,0,3.26.22,3.26,3v19.88h-.11l-15-24.35a24.44,24.44,0,0,1-4.79.33c-2,0-4.14-.16-6.54-.33v1.43c1.86,0,2.51.76,2.51,2.29Zm42.38,19.82h-1.38c.28,3.25.45,7.12.45,11.54a37.12,37.12,0,0,0,12.16,2c9.14,0,16.59-3.93,16.59-11.32s-5.27-9.35-10.92-11l-5.89-1.69c-2.3-.68-5-1.57-5-4.65,0-3.86,4.71-4.76,7.52-4.76,5,0,9.24,2.41,10.41,7.57H352c-.23-2.92-.45-6.34-.45-10.37a31.22,31.22,0,0,0-10.42-1.79c-8.35,0-16.76,2.64-16.76,11.31,0,6.62,5.72,9,11.43,10.71l4,1.18c2.58.78,6.06,1.68,6.06,5,0,4.2-4.76,5.16-8.07,5.16-6,0-10-2.86-11.13-9Zm-283-19.79h0v28.52c0,1.52-.65,2.23-2.51,2.28v1.39c2.4-.16,4.52-.32,6.53-.32s4.14.16,6.53.32v-1.39c-1.85,0-2.5-.76-2.5-2.28V268.14H64.81v12.53c0,1.52-.65,2.23-2.51,2.29v1.38c2.4-.16,4.52-.32,6.54-.32s4.14.16,6.53.32V283c-1.85-.06-2.5-.77-2.5-2.29V252.15c0-1.53.66-2.24,2.51-2.29v-1.42c-2.4.17-4.52.33-6.53.33s-4.14-.16-6.54-.33v1.42c1.86,0,2.51.76,2.51,2.29v10.77H51.63V252.15c0-1.53.66-2.24,2.5-2.29v-1.42c-2.39.17-4.51.33-6.53.32s-4.14-.15-6.53-.32v1.42c1.86,0,2.51.76,2.51,2.29Zm51.94,16.59h7.68A102.86,102.86,0,0,1,100,256.22h-.11c-1.25,4.36-3,8.66-4.41,12.52ZM82.34,284.32h0V283a3.33,3.33,0,0,0,2.83-2.51l10.67-27.06a7.61,7.61,0,0,0,.7-2.12c0-.55-.6-1.42-2.07-1.42v-1.42c1.74.17,3.43.33,5.12.33s3.43-.16,5.12-.33l10,31c.82,2.4,1.63,3.11,3.26,3.55v1.36c-2.28-.16-4.62-.33-6.91-.33s-4.68.17-7,.33V283c2-.39,2.72-.82,2.72-2.08a9.4,9.4,0,0,0-.55-2.72l-1.74-5.28H93.88l-2.39,6.42a5.75,5.75,0,0,0-.44,1.9c0,1,.76,1.64,2.56,1.75v1.36c-1.85-.16-3.76-.33-5.6-.33s-3.76.17-5.67.33ZM129,257.26h0L127.78,280c-.11,2.29-1,2.78-3.1,2.95v1.36c1.69-.16,3.7-.33,5.72-.33s4.08.17,6.26.33V283c-3.27-.39-3.54-1-3.54-3.71,0-1.46.11-2.93.16-5.76l.44-16h.11l10.4,27.08h4.57l9.09-26.75H158l1.25,16.22c.16,1.79.33,4.25.33,5.56,0,2.5-.71,3-3.38,3.32v1.36c2.23-.16,4.58-.33,7-.33s4.74.17,7.08.33V283c-1.09-.17-2.67-.39-2.78-1.8l-1.74-23.25c-.16-1.85-.38-4.29-.38-5.82s.27-2.07,2.18-2.23v-1.42c-1.85.17-3.76.33-5.67.33s-3.75-.16-5.66-.33l-8.54,25.24-9.52-25.24c-2,.17-3.92.33-5.88.33a55.47,55.47,0,0,1-5.55-.33v1.42c2.06.27,2.45.49,2.45,2.18,0,2.18-.11,3.7-.16,5.23ZM32.87,282.33h0l.69-6.76c-3.24,2.73-8.08,4.57-11.45,4.57-7.93,0-13.58-7.77-13.58-14.62,0-9.1,5.29-14.5,12.14-14.5,5,0,8.56,2.67,9.52,7.71h1.57c-.3-4-.52-7.93-.52-12.06a29.1,29.1,0,0,0-9.85-1.48C7.33,245.19,0,255.38,0,265.94c0,10.31,7.33,20.38,20.31,20.38a22.34,22.34,0,0,0,12.56-4ZM91.8,304h0v21.91c0,1.18-.5,1.72-1.93,1.77v1.15h20.9a48.91,48.91,0,0,1,1-8.16h-1.36c-.71,3.2-1.85,4.46-4.62,4.46H98V304.54c0-1.17.3-2.23,2.44-2.3v-1.16c-1.22.13-3.78.25-5.55.25-1.55,0-3.2-.13-5-.25v1.16c1.43,0,1.93.58,1.93,1.77Zm26.75.13h0v21.77c0,1.18-.5,1.72-1.93,1.77v1.15h22.2c0-2.32.13-4.54.5-8h-1.4c-.71,3.53-1.43,4.28-3.7,4.28h-9.45v-8.73h5.58c1.89,0,2.19.63,2.44,2.15h1.15c-.12-1-.25-2.87-.25-4s.13-2.95.25-4h-1.15c-.25,1.51-.55,2.14-2.44,2.14h-5.58v-8.12h9c2.27,0,2.86.8,3.28,3.11h1.15c-.21-2.27-.29-4.15-.34-6.46H116.61v1.15c1.43,0,1.93.59,1.93,1.77Zm25.81,23.54h0v1.15c1.47-.13,2.9-.26,4.37-.26s2.9.13,4.33.26v-1.15c-1.39-.08-2-.59-2-1.34a4.57,4.57,0,0,1,.34-1.46l1.85-4.94h8.19l1.34,4.06a7,7,0,0,1,.42,2.1c0,1-.55,1.29-2.1,1.59v1.15c1.81-.13,3.61-.26,5.42-.26s3.57.13,5.34.26v-1.15c-1.26-.33-1.89-.88-2.53-2.72l-7.73-23.91c-1.3.13-2.65.25-4,.25s-2.6-.13-3.95-.25v1.14c1.13,0,1.59.68,1.59,1.1a5.81,5.81,0,0,1-.54,1.64l-8.24,20.82a2.55,2.55,0,0,1-2.19,1.92Zm16.1-10.93h-5.93c1.1-3,2.44-6.29,3.41-9.64H158a79.69,79.69,0,0,0,2.44,9.64ZM194.37,319h0v3c0,1.93-1.64,3.32-4.62,3.32-4.88,0-7.82-5.89-7.82-11.1,0-5.42,2.87-9.9,8.71-9.9,3.48,0,7,1.85,7.58,5.59h1.21c-.17-2.89-.26-5.27-.26-7.33a16.12,16.12,0,0,0-8.29-2c-9.08,0-15.18,5.52-15.18,14.65,0,7.57,5,14.08,12.95,14.08a11.63,11.63,0,0,0,8.29-3.36l1,2.81h2.43v-9.41c0-1.89.76-2.27,2.23-2.32v-1.31c-1.89.13-3.74.26-5.63.26s-3.49-.14-5.21-.26v1.41c1.89,0,2.65.13,2.65,1.81ZM211,304h0v15.7c0,7.19,4,9.67,11.6,9.67s11.61-2.48,11.61-10.26V304c0-1.18.5-1.73,1.93-1.77v-1.16c-1.35.13-3.07.25-4.84.25-2.19,0-3.92-.13-5.59-.25v1.16c1.81.08,2.27.42,2.27,2.05V320c0,4.67-2,5.68-5.38,5.68s-5.38-.93-5.38-5.68V304.29c0-1.64.46-2,2.27-2.05v-1.16c-1.68.13-3.4.25-5.59.25-1.77,0-3.48-.13-4.84-.25v1.16c1.43,0,1.94.58,1.94,1.77Zm34,.13h0v21.77c0,1.18-.5,1.72-1.94,1.77v1.15h22.2c0-2.32.13-4.54.5-8h-1.4c-.71,3.53-1.43,4.28-3.7,4.28h-9.46v-8.86h5.59c1.89,0,2.18.64,2.44,2.14h1.14c-.12-1-.24-2.86-.24-4s.12-2.94.24-4H259.3c-.26,1.51-.55,2.14-2.44,2.14h-5.59v-8h9c2.27,0,2.86.8,3.28,3.11h1.15c-.21-2.27-.29-4.15-.33-6.46H243.12v1.15c1.43,0,1.94.59,1.94,1.77Zm27.29,36h0a5,5,0,1,1,5.08-5,5,5,0,0,1-5.08,5Zm-4.09-5h0a4.08,4.08,0,1,0,4.09-4.17,4.07,4.07,0,0,0-4.09,4.17Zm3,.4h0V338h-.87v-5.79h2.21c1.37,0,2,.51,2,1.64a1.51,1.51,0,0,1-1.5,1.6L274.8,338h-1l-1.52-2.51Zm0-.75h1.06c.74,0,1.41,0,1.41-.94,0-.72-.65-.85-1.27-.85h-1.2v1.79ZM187,215.86l-2.72-.71a1.58,1.58,0,0,1-1.2-2.06L186.74,199c1.26-4.78,4.84-5.69,8.69-4.69l8.33,2.18-1.07,4.09-8.08-2.12c-2.09-.55-3.05-.2-3.66,2.14l-.55,2.11,10.05,2.63-1.06,4-10.05-2.64Zm-30.22-17.55,1,5.07L168,201.31l.83,4.08-10.18,2.07.44,2.13c.48,2.36,1.42,2.77,3.53,2.34l8.19-1.66.84,4.15-8.43,1.71c-3.91.79-7.44-.31-8.42-5.17l-2.9-14.25a1.59,1.59,0,0,1,1.31-2L167,191.9l.84,4.15Zm-18.7,25a5.47,5.47,0,0,0,2.13-3.63c.15-1.61-.29-2.73-1.84-4.62l-7.84-9.65,3.48-2.82,8.58,10.54a8.93,8.93,0,0,1,2.25,6.83,11.12,11.12,0,0,1-11.43,9.28,8.94,8.94,0,0,1-6.22-3.6l-8.58-10.56,3.48-2.82,7.84,9.65c1.53,1.89,2.54,2.56,4.15,2.74A5.45,5.45,0,0,0,138,223.28Zm86.3-15.57a1.94,1.94,0,0,0-2.53-.06l-19.72,12.81,4.17,2.34,14.21-9.23-2.25,7.76-1.84-1.42-3.76,2.44,4.35,3.34L215.71,230l3.7,3.39,6.52-22.63a1.92,1.92,0,0,0-.71-2.42Zm-48.86,15.68a49.66,49.66,0,0,1,37.42,17l2.64-2.32a53.26,53.26,0,0,0-80.13,0l2.64,2.32A49.65,49.65,0,0,1,175.48,223.39Zm0-37.08a86.61,86.61,0,0,1,62.13,26.17l2.51-2.45a90.35,90.35,0,0,0-129.28,0l2.51,2.45A86.61,86.61,0,0,1,175.48,186.3Z"/></g></g></svg>
