<svg xmlns="http://www.w3.org/2000/svg" width="237.48" height="340.16" viewBox="0 0 237.48 340.16"><defs><style>.cls-1{fill:#fff;}</style></defs><title>europa-league-v-w</title><g id="Capa_2" data-name="Capa 2"><g id="WHITE_LOGO" data-name="WHITE LOGO"><path class="cls-1" d="M131.46,213.38l9.71,2.55,1-3.9-9.69-2.53.53-2c.59-2.25,1.51-2.59,3.54-2.06l7.81,2,1-4-8-2.1c-3.72-1-7.19-.1-8.42,4.53l-3.55,13.6a1.52,1.52,0,0,0,1.16,2l2.62.68ZM110.71,203l-.81-4-13.4,2.73a1.53,1.53,0,0,0-1.28,1.93L98,217.45c1,4.69,4.36,5.76,8.14,5l8.16-1.66-.82-4-7.9,1.61c-2,.41-3,0-3.42-2.26l-.42-2.06,9.84-2-.8-3.94-9.85,2-1-4.9ZM78,230.64c-1.56-.17-2.53-.83-4-2.65l-7.58-9.32-3.36,2.73,8.28,10.19a8.67,8.67,0,0,0,6,3.48,10.73,10.73,0,0,0,11-9,8.59,8.59,0,0,0-2.18-6.6L78,209.32,74.59,212l7.57,9.33c1.49,1.82,1.92,2.91,1.77,4.46a5.79,5.79,0,0,1-5.9,4.81m88.11-15.69a1.87,1.87,0,0,1,.68,2.35l-6.29,21.88L157,235.89l1.21-4.21-4.2-3.23,3.64-2.35,1.77,1.37,2.18-7.49-13.74,8.91-4-2.26,19.07-12.38a1.86,1.86,0,0,1,2.44.06Zm-84.25,30.9-2.56-2.24a51.49,51.49,0,0,1,77.45,0l-2.55,2.24a48.08,48.08,0,0,0-72.34,0M58,218.9l-2.43-2.37a87.34,87.34,0,0,1,125,0l-2.43,2.37A83.93,83.93,0,0,0,58,218.9"/><path class="cls-1" d="M129.57,329.75h8.55v2a8.46,8.46,0,0,1-6.33,2.73c-4.79,0-8.39-2.81-8.39-8.63s3.92-8.63,7.68-8.63c3.44,0,5.66,1.66,6.57,4.75l6.06-1.78c-1.43-5.19-5.46-8.67-12.55-8.67-7.6,0-14.09,5.46-14.09,14.33s6.41,14.33,14.17,14.33A15.25,15.25,0,0,0,144,334.06V324.8H129.57Z"/><polygon class="cls-1" points="71.86 328.55 83.65 328.55 83.65 322.86 71.86 322.86 71.86 317.68 84.67 317.68 84.67 311.98 65.53 311.98 65.53 339.67 84.99 339.67 84.99 333.97 71.86 333.97 71.86 328.55"/><polygon class="cls-1" points="49.42 311.98 43.09 311.98 43.09 339.67 62.55 339.67 62.55 333.97 49.42 333.97 49.42 311.98"/><path class="cls-1" d="M99.15,312,87.92,339.67h7.16l2-5.26h10.84l2,5.26h7.16L105.88,312Zm.12,16.73,3.24-8.5,3.24,8.5Z"/><path class="cls-1" d="M164,328.43c0,3.72-1.9,6-5.38,6s-5.38-2.29-5.38-6V312H147v16.81c0,7.71,5.34,11.35,11.71,11.35s11.71-3.68,11.71-11.35V312H164Z"/><polygon class="cls-1" points="180.29 333.97 180.29 328.55 192.08 328.55 192.08 322.86 180.29 322.86 180.29 317.67 193.11 317.67 193.11 311.98 173.96 311.98 173.96 339.66 193.42 339.66 193.42 333.97 180.29 333.97"/><path class="cls-1" d="M62.75,281.29c0,5.81-3,9.39-8.4,9.39s-8.4-3.58-8.4-9.39v-25.7H36.06v26.26c0,12,8.34,17.73,18.29,17.73s18.29-5.75,18.29-17.73V255.59H62.75Z"/><polygon class="cls-1" points="9.89 281.48 28.3 281.48 28.3 272.58 9.89 272.58 9.89 264.49 29.91 264.49 29.91 255.59 0 255.59 0 298.84 30.4 298.84 30.4 289.94 9.89 289.94 9.89 281.48"/><path class="cls-1" d="M219.93,255.59h-10.5l-17.55,43.25h11.18l3.15-8.22h16.93l3.15,8.22h11.18Zm-10.32,26.14,5.07-13.29,5.07,13.29Z"/><path class="cls-1" d="M196.25,269.92c0-9.39-7-14.34-15.51-14.34H163.8v43.25h9.89V284.26h7C189.26,284.26,196.25,279.32,196.25,269.92Zm-16,5.44h-6.55V264.49h6.55c4.39,0,6.12,2.29,6.12,5.44S184.63,275.36,180.24,275.36Z"/><path class="cls-1" d="M111.57,269.43c0-8.47-6.86-13.84-15.63-13.84H78.76v43.25h9.89V283.27H94l8.65,15.57h11.12l-9.64-17.36C108.48,279,111.57,275.11,111.57,269.43Zm-15.51,4.94H88.64v-9.89h7.41c4.08,0,5.62,2.1,5.62,4.94S100.14,274.37,96.06,274.37Z"/><path class="cls-1" d="M137.16,254.6c-12.72,0-20.93,8.58-20.93,22.6s8.21,22.6,20.93,22.6,20.93-8.58,20.93-22.6S149.88,254.6,137.16,254.6Zm0,36.31c-6.18,0-11.05-4.45-11.05-13.71s4.88-13.71,11.05-13.71,11.05,4.45,11.05,13.71S143.33,290.91,137.16,290.91Z"/><path class="cls-1" d="M155.16,16.9h0a.28.28,0,0,0,0-.15.34.34,0,0,0-.16-.28h0L129.39,1.78h0a.35.35,0,0,0-.17-.05.35.35,0,0,0-.34.29h0c-1.33,5.59-13.28,60,6,124.86-6.91-42.55,9.72-89.21,20.34-110"/><path class="cls-1" d="M124.51,170h0a79.52,79.52,0,0,0,16.62-3h0a.36.36,0,0,0,.21-.32.29.29,0,0,0,0-.15h0c-6.89-7.35-17.48-22.48-24.59-36.17,3.6,14.72,6.75,30.88,7.46,39.35a.35.35,0,0,0,.31.28"/><path class="cls-1" d="M147.22,165C111.3,107.15,117,25.38,121,.37h0v0a.35.35,0,0,0-.35-.35l-.11,0h0L80.83,16a.34.34,0,0,0-.25.33.3.3,0,0,0,0,.08h0C87,45.73,103.46,115.23,147.22,165"/><path class="cls-1" d="M98.16,167.1h0a.64.64,0,0,0,0,.07.37.37,0,0,0,.23.33,79.49,79.49,0,0,0,19.37,2.66.35.35,0,0,0,.33-.33h0c-.85-14.07-4.1-43-16-68.68,3.88,26-.37,53.09-3.88,65.95"/><path class="cls-1" d="M88.86,164.3a.34.34,0,0,0,.3-.18h0c.11-.51.33-1.49.44-2h0a.16.16,0,0,0,0-.06.34.34,0,0,0-.25-.33h0c-25.9-11.09-43.08-41-43.08-70.92,0-23.36,10-48.84,27.22-62.12h0a.33.33,0,0,0,.1-.24.23.23,0,0,0,0-.07h0c-.1-.39-.32-1.32-.44-1.9h0a.34.34,0,0,0-.53-.18,79.29,79.29,0,0,0,16.12,138l.1,0"/><path class="cls-1" d="M162.27,24.53h0a.31.31,0,0,0-.14,0,.36.36,0,0,0-.29.17L161,26.43a.31.31,0,0,0,0,.15.33.33,0,0,0,.14.26v0c19.2,13.07,30.08,39.06,30.08,64,0,27.75-13.48,55.57-36.44,67.76h0a.36.36,0,0,0-.11.26.37.37,0,0,0,0,.14h0l1,1.69h0a.35.35,0,0,0,.27.14.32.32,0,0,0,.16,0,79.29,79.29,0,0,0,6.18-136.27"/><polygon class="cls-1" points="178 162.82 179.93 162.82 179.93 168.22 180.81 168.22 180.81 162.82 182.75 162.82 182.75 162.06 178 162.06 178 162.82"/><polygon class="cls-1" points="188.9 162.06 186.85 167.42 184.81 162.06 183.82 162.06 183.82 168.22 184.7 168.22 184.7 163.8 186.39 168.22 187.32 168.22 189.01 163.8 189.01 168.22 189.89 168.22 189.89 162.06 188.9 162.06"/></g></g></svg>
